<?xml version="1.0" standalone="no"?>
<!DOCTYPE svg PUBLIC "-//W3C//DTD SVG 20010904//EN"
 "http://www.w3.org/TR/2001/REC-SVG-20010904/DTD/svg10.dtd">
<svg version="1.0" xmlns="http://www.w3.org/2000/svg"
 width="500.000000pt" height="500.000000pt" viewBox="0 0 500.000000 500.000000"
 preserveAspectRatio="xMidYMid meet">

<g transform="translate(0.000000,500.000000) scale(0.100000,-0.100000)"
fill="#000000" stroke="none">
<path d="M4750 3997 c-90 -31 -201 -102 -306 -197 -49 -44 -98 -89 -109 -101
-25 -27 -60 -40 -82 -32 -10 4 -14 2 -9 -5 4 -8 -3 -8 -26 -1 -18 5 -34 9 -35
9 -2 0 16 -20 40 -44 71 -74 107 -116 107 -127 0 -6 14 -28 30 -49 17 -21 30
-43 30 -50 0 -6 5 -8 12 -4 6 4 8 3 5 -3 -3 -5 5 -31 18 -58 14 -27 25 -54 25
-62 0 -7 7 -13 15 -13 8 0 15 7 15 16 0 8 4 13 8 10 11 -7 103 103 216 257
100 138 277 426 280 455 1 15 -10 17 -84 19 -67 2 -99 -2 -150 -20z m-457
-354 c-7 -2 -19 -2 -25 0 -7 3 -2 5 12 5 14 0 19 -2 13 -5z m210 -340 c-4 -9
-9 -9 -23 -1 -13 8 -15 14 -7 23 14 14 37 -3 30 -22z"/>
<path d="M2164 3942 c11 -12 16 -22 11 -22 -4 0 -2 -6 4 -14 7 -8 11 -20 10
-28 -4 -18 19 -58 34 -58 7 0 6 4 -3 10 -10 7 -11 10 -2 10 9 0 8 7 -4 25 -11
17 -12 25 -5 25 7 0 9 5 6 10 -4 6 -11 7 -17 4 -7 -5 -9 -1 -5 9 4 10 -3 21
-21 33 l-27 17 19 -21z"/>
<path d="M2583 3884 c-19 -19 -24 -32 -20 -54 8 -40 68 -180 77 -180 8 0 57
130 66 177 5 26 1 37 -19 57 -15 15 -38 26 -52 26 -14 0 -37 -11 -52 -26z m91
-27 c8 -13 6 -22 -10 -38 -40 -39 -90 0 -59 47 12 18 20 22 37 15 12 -4 27
-15 32 -24z"/>
<path d="M2025 3871 c-3 -5 0 -13 6 -17 7 -4 9 -3 5 4 -3 5 0 13 6 15 9 4 10
6 1 6 -6 1 -14 -3 -18 -8z"/>
<path d="M1964 3838 c-19 -23 -19 -23 1 -7 11 9 27 19 35 22 13 5 13 6 -1 6
-9 1 -24 -9 -35 -21z"/>
<path d="M4102 3780 c-26 -34 -25 -46 2 -42 10 2 15 -1 12 -6 -4 -6 -1 -14 6
-18 7 -4 9 -3 5 1 -4 5 3 15 15 22 13 7 17 12 11 13 -7 0 -13 5 -13 11 0 5 5
7 10 4 21 -13 31 7 14 26 -24 26 -37 24 -62 -11z m24 -37 c-3 -4 -6 -1 -6 6 0
7 -4 9 -10 6 -11 -7 -14 8 -3 19 4 3 11 -1 16 -9 5 -9 6 -19 3 -22z"/>
<path d="M4056 3708 c3 -5 10 -6 15 -3 13 9 11 12 -6 12 -8 0 -12 -4 -9 -9z"/>
<path d="M2200 3680 c1 -8 7 -24 15 -34 19 -25 19 -16 0 20 -8 16 -15 22 -15
14z"/>
<path d="M4093 3655 c0 -7 6 -11 14 -8 7 3 13 6 13 8 0 2 -6 5 -13 8 -8 3 -14
-1 -14 -8z"/>
<path d="M2757 3508 c12 -13 23 -34 26 -48 4 -22 4 -21 6 6 0 19 -6 37 -17 47
-28 25 -39 20 -15 -5z"/>
<path d="M615 3298 c-23 -18 -26 -27 -22 -57 6 -48 68 -195 77 -184 15 18 60
156 60 187 0 39 -31 76 -64 76 -13 0 -36 -10 -51 -22z m83 -39 c4 -36 -21 -55
-53 -41 -44 20 -24 76 25 70 18 -2 26 -10 28 -29z"/>
<path d="M2545 3238 c17 -13 31 -17 43 -12 15 6 14 8 -5 11 -13 3 -23 8 -23
12 0 4 -9 7 -21 8 -18 2 -18 0 6 -19z"/>
<path d="M3416 3214 c-5 -36 15 -163 29 -182 5 -6 105 44 105 53 0 21 -76 138
-101 156 l-26 18 -7 -45z"/>
<path d="M3205 2972 c22 -20 39 -40 38 -44 -2 -5 2 -8 9 -8 6 0 8 -3 5 -7 -4
-3 -2 -12 4 -19 9 -11 14 -11 26 2 14 13 13 17 -3 36 -26 28 -94 78 -108 78
-6 0 7 -17 29 -38z"/>
<path d="M3600 2690 l-166 -5 -194 -199 c-274 -279 -516 -489 -796 -690 -21
-15 -23 -20 -13 -28 10 -7 9 -8 -6 -4 -23 6 -130 -66 -118 -79 5 -4 0 -5 -9
-2 -13 4 -15 2 -11 -10 5 -13 2 -15 -13 -10 -19 7 -19 7 0 -8 22 -17 14 -20
-13 -6 -11 6 -22 6 -32 -1 -11 -8 -11 -9 3 -4 10 3 20 1 23 -4 4 -6 -7 -10
-22 -10 -16 0 -38 -7 -49 -16 -19 -15 -19 -16 1 -9 44 16 55 17 55 6 0 -11
-31 -16 -78 -13 -19 1 -21 -2 -12 -18 9 -16 8 -18 -5 -14 -11 5 -13 2 -9 -10
8 -22 19 -20 46 7 28 27 78 31 78 5 0 -18 23 -18 59 1 30 16 39 13 39 -13 -1
-22 -2 -23 -15 -10 -19 18 -29 18 -14 0 10 -12 8 -13 -10 -9 -18 5 -21 3 -16
-10 5 -13 1 -17 -17 -17 -16 0 -26 -7 -29 -21 -4 -13 -11 -20 -20 -16 -8 3
-20 1 -28 -5 -12 -8 -12 -9 1 -5 8 2 22 1 31 -4 11 -6 21 -4 29 6 7 8 16 12
21 9 5 -3 9 -1 9 4 0 10 50 37 63 34 12 -3 82 35 96 52 7 9 18 13 24 9 6 -4 8
0 4 10 -8 22 10 32 30 15 14 -11 16 -11 11 3 -4 10 -1 16 5 16 32 -1 48 4 42
13 -3 6 1 7 9 4 9 -3 16 -1 16 5 0 6 3 10 8 9 13 -4 69 31 76 47 3 9 10 14 15
10 13 -7 123 60 113 70 -4 5 -2 5 4 2 12 -7 107 50 307 185 274 183 585 437
792 647 l90 91 -120 -2 c-66 -1 -194 -5 -285 -8z m-1205 -950 c-3 -5 -12 -10
-18 -10 -7 0 -6 4 3 10 19 12 23 12 15 0z m2 -196 c0 -7 -6 -10 -14 -7 -7 3
-13 8 -13 12 0 4 6 8 13 8 8 0 14 -6 14 -13z"/>
<path d="M2755 2655 c-14 -13 -25 -32 -25 -42 0 -22 57 -174 70 -187 10 -10
40 52 63 132 12 40 13 54 2 79 -21 49 -71 58 -110 18z m85 -41 c0 -31 -41 -54
-65 -34 -21 18 -19 46 7 64 28 20 58 4 58 -30z"/>
<path d="M377 2572 c-11 -12 -13 -22 -6 -34 8 -14 7 -16 -6 -12 -12 5 -15 -4
-15 -57 0 -35 5 -71 11 -79 8 -12 9 -10 8 10 -5 52 49 131 96 143 18 4 17 5
-3 6 -25 1 -55 25 -45 35 4 3 0 6 -9 6 -8 0 -22 -8 -31 -18z"/>
<path d="M460 2570 c0 -5 5 -10 10 -10 6 0 10 5 10 10 0 6 -4 10 -10 10 -5 0
-10 -4 -10 -10z"/>
<path d="M585 2440 c-3 -5 -1 -10 4 -10 6 0 11 5 11 10 0 6 -2 10 -4 10 -3 0
-8 -4 -11 -10z"/>
<path d="M610 2415 c0 -8 2 -15 4 -15 2 0 6 7 10 15 3 8 1 15 -4 15 -6 0 -10
-7 -10 -15z"/>
<path d="M3690 2234 c-36 -31 -89 -74 -117 -96 l-53 -40 0 -113 c0 -227 -68
-442 -195 -620 -79 -110 -134 -145 -195 -123 -45 15 -68 63 -129 268 l-56 188
-80 -49 c-44 -27 -82 -54 -83 -59 -2 -6 -8 -8 -13 -4 -5 3 -9 0 -9 -5 0 -6 -3
-10 -7 -9 -16 3 -62 -25 -56 -35 3 -6 1 -7 -5 -3 -13 8 -75 -28 -65 -38 4 -4
-1 -4 -11 0 -15 6 -17 4 -11 -6 5 -9 4 -11 -3 -6 -17 10 -55 -13 -48 -29 3 -8
1 -17 -5 -20 -5 -4 -8 -3 -7 2 5 15 -17 14 -54 -3 -21 -9 -35 -21 -32 -25 3
-5 -1 -6 -9 -3 -8 3 -20 -2 -27 -11 -7 -8 -18 -15 -26 -15 -7 0 -20 -7 -28
-16 -9 -8 -16 -13 -16 -10 0 4 -35 -11 -77 -33 -43 -21 -88 -42 -101 -46 -12
-3 -19 -11 -16 -17 4 -6 2 -8 -3 -5 -15 9 -134 -44 -126 -56 3 -6 1 -7 -5 -3
-6 3 -39 -5 -74 -19 -35 -15 -94 -38 -133 -52 -105 -38 -145 -81 -171 -184 -9
-35 -22 -71 -29 -79 -22 -24 -75 -143 -75 -167 0 -34 40 -69 99 -88 42 -14 56
-24 64 -45 9 -23 18 -29 56 -34 245 -34 539 -4 789 79 584 196 1030 692 1166
1297 23 103 53 354 44 378 -2 5 -32 -16 -68 -46z m-10 -128 c6 -16 1 -70 -15
-168 -27 -170 -41 -222 -67 -245 -19 -17 -21 -17 -39 6 -11 13 -17 31 -15 40
3 9 8 50 11 91 9 103 30 191 60 250 28 54 50 64 65 26z"/>
<path d="M1955 2132 c-5 -9 -10 -25 -11 -35 -3 -15 -1 -15 16 -5 18 12 18 13
3 19 -16 5 -16 7 1 16 11 6 14 13 8 17 -5 3 -13 -2 -17 -12z"/>
<path d="M2058 2041 l-37 -28 32 -16 c110 -52 137 -55 184 -20 63 47 68 53 41
54 -66 3 -97 8 -137 23 -24 9 -44 16 -45 15 0 0 -18 -13 -38 -28z m142 -45 c0
-3 -4 -8 -10 -11 -5 -3 -10 -1 -10 4 0 6 5 11 10 11 6 0 10 -2 10 -4z m40 0
c0 -2 -7 -7 -16 -10 -8 -3 -12 -2 -9 4 6 10 25 14 25 6z"/>
<path d="M1980 2046 c0 -2 8 -10 18 -17 15 -13 16 -12 3 4 -13 16 -21 21 -21
13z"/>
<path d="M562 1891 c-23 -6 -22 -8 22 -39 26 -19 50 -32 55 -30 10 3 -35 79
-47 77 -4 -1 -18 -4 -30 -8z"/>
<path d="M1057 1862 c-10 -10 -18 -30 -19 -44 -2 -27 60 -198 72 -198 11 0 70
165 70 194 0 53 -87 87 -123 48z m77 -18 c31 -30 13 -67 -30 -62 -35 4 -47 44
-18 65 23 17 29 16 48 -3z"/>
<path d="M307 1733 c-8 -13 9 -48 16 -36 4 7 3 14 -3 18 -6 4 -8 11 -5 16 4 5
4 9 1 9 -3 0 -7 -3 -9 -7z"/>
<path d="M335 1660 c3 -5 8 -10 11 -10 2 0 4 5 4 10 0 6 -5 10 -11 10 -5 0 -7
-4 -4 -10z"/>
<path d="M341 1623 c7 -12 15 -20 18 -17 3 2 -3 12 -13 22 -17 16 -18 16 -5
-5z"/>
<path d="M369 1631 c7 -5 10 -14 7 -20 -4 -6 -5 -11 -2 -11 3 0 10 8 15 18 8
14 5 18 -12 19 -16 2 -18 0 -8 -6z"/>
<path d="M2495 1590 c3 -5 8 -10 11 -10 2 0 4 5 4 10 0 6 -5 10 -11 10 -5 0
-7 -4 -4 -10z"/>
<path d="M374 1555 c0 -13 3 -22 7 -19 8 4 6 30 -2 38 -3 3 -5 -5 -5 -19z"/>
<path d="M2218 1563 c7 -3 16 -2 19 1 4 3 -2 6 -13 5 -11 0 -14 -3 -6 -6z"/>
<path d="M2045 1540 c-3 -5 -1 -10 4 -10 6 0 11 5 11 10 0 6 -2 10 -4 10 -3 0
-8 -4 -11 -10z"/>
<path d="M571 1524 c0 -11 3 -14 6 -6 3 7 2 16 -1 19 -3 4 -6 -2 -5 -13z"/>
<path d="M387 1524 c-9 -10 25 -74 36 -67 6 3 7 1 3 -5 -8 -14 28 -74 39 -64
5 4 5 2 2 -5 -6 -10 30 -64 58 -86 10 -9 211 -1 252 9 22 6 21 7 -15 34 -21
15 -50 41 -64 58 -20 24 -27 28 -32 16 -3 -8 -2 -13 2 -10 4 2 15 -13 24 -35
16 -38 16 -39 -3 -28 -11 5 -16 15 -13 21 5 7 2 9 -8 5 -17 -6 -74 21 -148 68
-25 16 -48 28 -52 27 -5 -1 -8 3 -8 8 0 6 -5 10 -10 10 -6 0 -21 11 -34 25
-13 13 -26 22 -29 19z"/>
<path d="M2164 1434 c0 -13 1 -24 1 -24 8 0 46 40 39 41 -5 0 -16 2 -24 4 -11
2 -16 -5 -16 -21z"/>
<path d="M640 1441 c0 -6 4 -13 10 -16 6 -3 7 1 4 9 -7 18 -14 21 -14 7z"/>
<path d="M2046 1377 c3 -10 9 -15 12 -12 3 3 0 11 -7 18 -10 9 -11 8 -5 -6z"/>
<path d="M2006 1364 c-6 -15 -4 -15 11 -3 15 13 16 12 9 -6 -5 -15 -4 -17 5
-8 11 11 5 33 -11 33 -4 0 -11 -7 -14 -16z"/>
<path d="M1005 915 c-49 -7 -99 -14 -110 -14 -19 -1 -18 -3 5 -21 117 -92 318
-204 458 -254 40 -14 75 -26 78 -26 12 0 -138 136 -188 170 -36 26 -70 61 -95
99 -21 33 -42 60 -48 59 -5 0 -50 -6 -100 -13z"/>
</g>
</svg>
